<svg width="50" height="50" viewBox="0 0 50 50" fill="none" xmlns="http://www.w3.org/2000/svg">
<rect width="50" height="50" fill="white"/>
<path d="M17.4142 12.5423L17.161 13.5097C17.4238 13.5784 17.7032 13.5374 17.9351 13.3959L17.4142 12.5423ZM12.3013 11.2044L12.5544 10.237C12.225 10.1508 11.8743 10.2382 11.6239 10.4688L12.3013 11.2044ZM19.9903 11.2998L20.3338 12.2389C20.5886 12.1458 20.7946 11.9531 20.9045 11.7051L19.9903 11.2998ZM22.1324 6.46786L21.9807 5.47943C21.6437 5.53113 21.3563 5.75093 21.2182 6.06258L22.1324 6.46786ZM27.8669 6.46786L28.7811 6.06258C28.643 5.75093 28.3556 5.53113 28.0186 5.47943L27.8669 6.46786ZM30.009 11.2998L29.0948 11.7051C29.2048 11.9531 29.4107 12.1458 29.6655 12.2389L30.009 11.2998ZM32.5851 12.5423L32.0643 13.3959C32.2961 13.5374 32.5755 13.5784 32.8383 13.5097L32.5851 12.5423ZM37.698 11.2044L38.3755 10.4688C38.125 10.2382 37.7743 10.1508 37.4449 10.237L37.698 11.2044ZM41.2767 15.6866L42.1635 16.1486C42.321 15.8464 42.3137 15.4848 42.1442 15.1891L41.2767 15.6866ZM38.8342 20.3745L37.9473 19.9125C37.822 20.153 37.7998 20.4342 37.8857 20.6915L38.8342 20.3745ZM39.4684 23.1628L38.4762 23.2875C38.5101 23.5571 38.6522 23.8013 38.8698 23.9639L39.4684 23.1628ZM43.7034 26.3271L44.701 26.3968C44.7247 26.0576 44.5744 25.7295 44.302 25.526L43.7034 26.3271ZM42.4319 31.9186L42.6236 32.9001C42.9576 32.8349 43.2356 32.6042 43.3612 32.2878L42.4319 31.9186ZM37.2386 32.9329L37.0469 31.9515C36.781 32.0034 36.5476 32.161 36.4 32.3882L37.2386 32.9329ZM35.457 35.1645L34.74 34.4674C34.551 34.6619 34.449 34.9249 34.4575 35.196L35.457 35.1645ZM35.6238 40.4517L36.1911 41.2753C36.4712 41.0823 36.634 40.7602 36.6233 40.4202L35.6238 40.4517ZM30.4592 42.9427L29.8114 43.7045C30.0707 43.925 30.4243 43.9985 30.75 43.8995L30.4592 42.9427ZM26.4276 39.5143L27.0754 38.7525C26.8691 38.5771 26.6005 38.4928 26.3309 38.519L26.4276 39.5143ZM23.5717 39.5143L23.6684 38.519C23.3989 38.4928 23.1302 38.5771 22.9239 38.7525L23.5717 39.5143ZM19.5401 42.9427L19.2493 43.8995C19.575 43.9985 19.9286 43.925 20.1879 43.7045L19.5401 42.9427ZM14.3756 40.4517L13.3761 40.4202C13.3653 40.7602 13.5282 41.0823 13.8083 41.2753L14.3756 40.4517ZM14.5423 35.1645L15.5418 35.196C15.5503 34.9249 15.4484 34.6619 15.2593 34.4674L14.5423 35.1645ZM12.7607 32.9329L13.5993 32.3882C13.4518 32.161 13.2183 32.0034 12.9524 31.9515L12.7607 32.9329ZM7.56744 31.9186L6.63808 32.2878C6.76374 32.6042 7.04168 32.8349 7.37575 32.9001L7.56744 31.9186ZM6.2959 26.3271L5.69736 25.526C5.42493 25.7295 5.27461 26.0576 5.29833 26.3968L6.2959 26.3271ZM10.5309 23.1628L11.1295 23.9639C11.3471 23.8013 11.4892 23.5571 11.5231 23.2876L10.5309 23.1628ZM11.1651 20.3745L12.1136 20.6915C12.1996 20.4342 12.1773 20.153 12.052 19.9125L11.1651 20.3745ZM8.72263 15.6866L7.85513 15.1891C7.6856 15.4848 7.67831 15.8464 7.83578 16.1486L8.72263 15.6866ZM17.6673 11.5748L12.5544 10.237L12.0482 12.1719L17.161 13.5097L17.6673 11.5748ZM19.6468 10.3606C18.6804 10.7141 17.7589 11.1604 16.8933 11.6886L17.9351 13.3959C18.6896 12.9355 19.4923 12.5467 20.3338 12.2389L19.6468 10.3606ZM21.2182 6.06258L19.0761 10.8945L20.9045 11.7051L23.0466 6.87313L21.2182 6.06258ZM24.9997 5.25C23.9738 5.25 22.9655 5.3283 21.9807 5.47943L22.2841 7.45629C23.1688 7.32051 24.0757 7.25 24.9997 7.25V5.25ZM28.0186 5.47943C27.0338 5.3283 26.0255 5.25 24.9997 5.25V7.25C25.9236 7.25 26.8305 7.32051 27.7153 7.45629L28.0186 5.47943ZM30.9232 10.8945L28.7811 6.06258L26.9528 6.87313L29.0948 11.7051L30.9232 10.8945ZM33.106 11.6886C32.2404 11.1604 31.3189 10.7141 30.3525 10.3606L29.6655 12.2389C30.507 12.5467 31.3097 12.9355 32.0643 13.3959L33.106 11.6886ZM37.4449 10.237L32.332 11.5748L32.8383 13.5097L37.9512 12.1719L37.4449 10.237ZM42.1442 15.1891C41.1336 13.4267 39.8594 11.8355 38.3755 10.4688L37.0206 11.94C38.3553 13.1692 39.501 14.6001 40.4092 16.184L42.1442 15.1891ZM39.721 20.8366L42.1635 16.1486L40.3898 15.2245L37.9473 19.9125L39.721 20.8366ZM40.4606 23.0381C40.3314 22.0104 40.1021 21.0134 39.7826 20.0576L37.8857 20.6915C38.1638 21.5236 38.3636 22.3918 38.4762 23.2875L40.4606 23.0381ZM44.302 25.526L40.0669 22.3617L38.8698 23.9639L43.1049 27.1282L44.302 25.526ZM43.3612 32.2878C44.0938 30.4437 44.5565 28.4636 44.701 26.3968L42.7059 26.2573C42.5759 28.1156 42.1602 29.8939 41.5025 31.5495L43.3612 32.2878ZM37.4303 33.9144L42.6236 32.9001L42.2402 30.9372L37.0469 31.9515L37.4303 33.9144ZM36.1741 35.8616C36.8828 35.1325 37.5209 34.3342 38.0773 33.4776L36.4 32.3882C35.9149 33.135 35.3584 33.8314 34.74 34.4674L36.1741 35.8616ZM36.6233 40.4202L36.4566 35.133L34.4575 35.196L34.6243 40.4833L36.6233 40.4202ZM30.75 43.8995C32.7107 43.3037 34.5418 42.4114 36.1911 41.2753L35.0565 39.6282C33.5738 40.6496 31.9289 41.451 30.1685 41.9859L30.75 43.8995ZM25.7798 40.2761L29.8114 43.7045L31.107 42.1809L27.0754 38.7525L25.7798 40.2761ZM24.9997 40.5833C25.5138 40.5833 26.0224 40.5584 26.5243 40.5096L26.3309 38.519C25.8932 38.5615 25.4491 38.5833 24.9997 38.5833V40.5833ZM23.475 40.5096C23.9769 40.5584 24.4855 40.5833 24.9997 40.5833V38.5833C24.5502 38.5833 24.1061 38.5615 23.6684 38.519L23.475 40.5096ZM20.1879 43.7045L24.2195 40.2761L22.9239 38.7525L18.8923 42.1809L20.1879 43.7045ZM13.8083 41.2753C15.4575 42.4114 17.2886 43.3037 19.2493 43.8995L19.8309 41.9859C18.0705 41.451 16.4255 40.6496 14.9429 39.6282L13.8083 41.2753ZM13.5428 35.133L13.3761 40.4202L15.3751 40.4833L15.5418 35.196L13.5428 35.133ZM11.9221 33.4776C12.4784 34.3342 13.1165 35.1325 13.8253 35.8616L15.2593 34.4674C14.6409 33.8314 14.0844 33.135 13.5993 32.3882L11.9221 33.4776ZM7.37575 32.9001L12.569 33.9144L12.9524 31.9515L7.75912 30.9372L7.37575 32.9001ZM5.29833 26.3968C5.44285 28.4636 5.90556 30.4438 6.63808 32.2878L8.4968 31.5495C7.83916 29.8939 7.4234 28.1156 7.29346 26.2573L5.29833 26.3968ZM9.9324 22.3617L5.69736 25.526L6.89444 27.1282L11.1295 23.9639L9.9324 22.3617ZM10.2167 20.0576C9.89725 21.0134 9.66793 22.0104 9.53875 23.0381L11.5231 23.2876C11.6357 22.3918 11.8355 21.5236 12.1136 20.6915L10.2167 20.0576ZM7.83578 16.1486L10.2783 20.8366L12.052 19.9125L9.60947 15.2245L7.83578 16.1486ZM11.6239 10.4688C10.1399 11.8355 8.86571 13.4267 7.85513 15.1891L9.59012 16.184C10.4983 14.6001 11.644 13.1692 12.9787 11.94L11.6239 10.4688ZM30.2497 25C30.2497 27.8995 27.8992 30.25 24.9997 30.25V32.25C29.0037 32.25 32.2497 29.0041 32.2497 25H30.2497ZM24.9997 19.75C27.8992 19.75 30.2497 22.1005 30.2497 25H32.2497C32.2497 20.9959 29.0037 17.75 24.9997 17.75V19.75ZM19.7497 25C19.7497 22.1005 22.1002 19.75 24.9997 19.75V17.75C20.9956 17.75 17.7497 20.9959 17.7497 25H19.7497ZM24.9997 30.25C22.1002 30.25 19.7497 27.8995 19.7497 25H17.7497C17.7497 29.0041 20.9956 32.25 24.9997 32.25V30.25Z" fill="#A7CE46"/>
</svg>
