<svg width="50" height="52" viewBox="0 0 50 52" fill="none" xmlns="http://www.w3.org/2000/svg">
<rect width="50" height="50" fill="white"/>
<path d="M16.2214 25.9036C16.817 23.6808 19.1017 22.3617 21.3245 22.9573L22.0798 23.1597C24.3026 23.7553 25.6217 26.04 25.0261 28.2628L19.0269 50.6523L15.8844 44.2416L10.2222 48.2931L16.2214 25.9036Z" fill="white" stroke="#A7CE46" stroke-width="2" stroke-linecap="round" stroke-linejoin="round"/>
<path d="M26.0784 28.2625C25.4828 26.0397 26.8019 23.755 29.0247 23.1594L29.78 22.957C32.0028 22.3614 34.2875 23.6805 34.8831 25.9033L40.8824 48.2927L35.2547 45.3804L32.0777 50.652L26.0784 28.2625Z" fill="white" stroke="#A7CE46" stroke-width="2" stroke-linecap="round" stroke-linejoin="round"/>
<circle cx="24.9997" cy="18.0351" r="15.9518" fill="white" stroke="#A7CE46" stroke-width="2" stroke-linecap="round" stroke-linejoin="round"/>
<path d="M16.0801 19.1744L21.7772 24.8714L33.1713 13.4773" stroke="#A7CE46" stroke-width="2" stroke-linecap="round" stroke-linejoin="round"/>
</svg>
