<svg width="62" height="62" viewBox="0 0 62 62" fill="none" xmlns="http://www.w3.org/2000/svg">
<rect width="50" height="50" transform="translate(6 6)" fill="white"/>
<path d="M24.9178 15.9351L24.2107 15.228C23.9812 15.4575 23.8774 15.7842 23.9322 16.1041C23.9871 16.4241 24.1938 16.6975 24.4867 16.8374L24.9178 15.9351ZM31.3308 9.52213L32.0379 8.81503C31.8504 8.62749 31.596 8.52213 31.3308 8.52214C31.0656 8.52213 30.8112 8.62749 30.6237 8.81503L31.3308 9.52213ZM38.6573 16.8487L37.9502 17.5558C38.2291 17.8347 38.646 17.9236 39.0144 17.7827C39.3829 17.6419 39.6341 17.2976 39.6558 16.9037L38.6573 16.8487ZM45.533 23.7244L45.478 22.7259C45.0841 22.7476 44.7398 22.9988 44.599 23.3673C44.4581 23.7357 44.547 24.1525 44.8259 24.4315L45.533 23.7244ZM52.8595 31.0509L53.5666 31.758C53.9572 31.3674 53.9572 30.7343 53.5666 30.3438L52.8595 31.0509ZM46.6129 37.2975L45.6894 37.6811C45.8175 37.9894 46.0909 38.2134 46.4183 38.2784C46.7457 38.3433 47.084 38.2406 47.32 38.0046L46.6129 37.2975ZM38.0814 45.829L38.7885 46.5361C39.0246 46.3001 39.1273 45.9618 39.0623 45.6344C38.9974 45.307 38.7733 45.0336 38.4651 44.9055L38.0814 45.829ZM31.3308 52.5796L30.6237 53.2867C30.8112 53.4742 31.0656 53.5796 31.3308 53.5796C31.596 53.5796 31.8504 53.4742 32.0379 53.2867L31.3308 52.5796ZM23.7536 45.0024L24.4608 44.2953C24.171 44.0056 23.7339 43.9219 23.3576 44.0842C22.9814 44.2465 22.7422 44.6218 22.7541 45.0314L23.7536 45.0024ZM17.4225 38.6713L17.3935 39.6709C17.8031 39.6827 18.1785 39.4436 18.3407 39.0673C18.503 38.6911 18.4193 38.2539 18.1296 37.9642L17.4225 38.6713ZM9.80208 31.0509L9.09498 30.3438C8.70445 30.7343 8.70445 31.3674 9.09498 31.758L9.80208 31.0509ZM16.216 24.6369L17.1183 24.2058C16.9784 23.9129 16.705 23.7062 16.385 23.6513C16.0651 23.5965 15.7384 23.7003 15.5089 23.9298L16.216 24.6369ZM26.0105 17.9173C28.1679 20.0746 28.1679 23.5723 26.0105 25.7296L27.4247 27.1439C30.3631 24.2055 30.3631 19.4414 27.4248 16.503L26.0105 17.9173ZM24.4867 16.8374C25.0365 17.1001 25.5528 17.4595 26.0105 17.9173L27.4248 16.503C26.8043 15.8826 26.1007 15.392 25.349 15.0328L24.4867 16.8374ZM30.6237 8.81503L24.2107 15.228L25.6249 16.6422L32.0379 10.2292L30.6237 8.81503ZM39.3644 16.1415L32.0379 8.81503L30.6237 10.2292L37.9502 17.5558L39.3644 16.1415ZM39.8512 11.8897C38.4885 13.2524 37.7572 15.0101 37.6588 16.7936L39.6558 16.9037C39.7281 15.5927 40.2641 14.3052 41.2654 13.3039L39.8512 11.8897ZM50.492 11.8897C47.5536 8.95134 42.7895 8.95134 39.8512 11.8897L41.2654 13.3039C43.4227 11.1466 46.9204 11.1466 49.0778 13.3039L50.492 11.8897ZM50.492 22.5305C53.4303 19.5922 53.4303 14.8281 50.492 11.8897L49.0778 13.3039C51.2351 15.4613 51.2351 18.959 49.0778 21.1163L50.492 22.5305ZM45.5881 24.7228C47.3716 24.6245 49.1293 23.8932 50.492 22.5305L49.0778 21.1163C48.0765 22.1176 46.7889 22.6536 45.478 22.7259L45.5881 24.7228ZM53.5666 30.3438L46.2401 23.0172L44.8259 24.4315L52.1524 31.758L53.5666 30.3438ZM47.32 38.0046L53.5666 31.758L52.1524 30.3438L45.9058 36.5904L47.32 38.0046ZM44.4935 35.8972C45.0225 36.4262 45.4205 37.0337 45.6894 37.6811L47.5364 36.9139C47.1687 36.0287 46.6251 35.2004 45.9077 34.483L44.4935 35.8972ZM36.6811 35.8972C38.8385 33.7399 42.3362 33.7399 44.4935 35.8972L45.9077 34.483C42.9693 31.5446 38.2053 31.5446 35.2669 34.483L36.6811 35.8972ZM36.6811 43.7096C34.5238 41.5522 34.5238 38.0545 36.6811 35.8972L35.2669 34.483C32.3285 37.4214 32.3285 42.1854 35.2669 45.1238L36.6811 43.7096ZM38.4651 44.9055C37.8176 44.6365 37.2101 44.2386 36.6811 43.7096L35.2669 45.1238C35.9843 45.8412 36.8127 46.3848 37.6978 46.7525L38.4651 44.9055ZM32.0379 53.2867L38.7885 46.5361L37.3743 45.1219L30.6237 51.8725L32.0379 53.2867ZM23.0465 45.7095L30.6237 53.2867L32.0379 51.8725L24.4608 44.2953L23.0465 45.7095ZM22.5526 50.5131C24.0776 48.9882 24.8111 46.9697 24.7532 44.9734L22.7541 45.0314C22.7967 46.5003 22.2581 47.9792 21.1384 49.0989L22.5526 50.5131ZM11.9118 50.5131C14.8502 53.4515 19.6142 53.4515 22.5526 50.5131L21.1384 49.0989C18.9811 51.2562 15.4834 51.2562 13.326 49.0989L11.9118 50.5131ZM11.9118 39.8723C8.97343 42.8107 8.97343 47.5747 11.9118 50.5131L13.326 49.0989C11.1687 46.9416 11.1687 43.4438 13.326 41.2865L11.9118 39.8723ZM17.4515 37.6717C15.4553 37.6138 13.4368 38.3474 11.9118 39.8723L13.326 41.2865C14.4457 40.1668 15.9247 39.6283 17.3935 39.6709L17.4515 37.6717ZM9.09498 31.758L16.7154 39.3784L18.1296 37.9642L10.5092 30.3438L9.09498 31.758ZM15.5089 23.9298L9.09498 30.3438L10.5092 31.758L16.9231 25.344L15.5089 23.9298ZM18.1982 25.7296C17.7404 25.2719 17.381 24.7556 17.1183 24.2058L15.3137 25.0681C15.6729 25.8198 16.1635 26.5234 16.7839 27.1439L18.1982 25.7296ZM26.0105 25.7296C23.8532 27.887 20.3555 27.887 18.1982 25.7296L16.7839 27.1439C19.7223 30.0822 24.4864 30.0822 27.4247 27.1439L26.0105 25.7296Z" fill="#A7CE46"/>
</svg>
