<svg width="50" height="52" viewBox="0 0 50 52" fill="none" xmlns="http://www.w3.org/2000/svg">
<rect width="50" height="50" fill="white"/>
<path d="M25.5293 21.7685C25.1264 23.7578 25.117 25.7826 25.5012 27.7855C26.2562 31.721 28.5092 35.3736 31.845 38.0704C31.9896 38.1873 32.1821 38.2263 32.3608 38.1749C35.4044 37.2992 38.1328 35.7038 40.2513 33.5611C42.4411 31.3464 43.9179 28.5988 44.5221 25.6155C44.9251 23.6258 44.9346 21.6015 44.5504 19.5988C43.7952 15.6628 41.5422 12.0102 38.2065 9.31344C38.0619 9.19657 37.8693 9.15761 37.6906 9.20895C34.6471 10.0847 31.9185 11.6801 29.8002 13.8227C27.6103 16.0375 26.1336 18.785 25.5293 21.7685Z" stroke="#A7CE46" stroke-width="2" stroke-linecap="round" stroke-linejoin="round"/>
<path d="M8.10224 24.3151C8.41659 27.0763 9.25839 29.7176 10.6036 32.1645C13.2471 36.9722 17.7224 40.7797 23.205 42.8853C23.4426 42.9766 23.7098 42.9462 23.921 42.8039C27.516 40.3795 30.397 37.1505 32.2527 33.4661C34.1709 29.6576 34.9356 25.4558 34.4642 21.3149C34.1499 18.5532 33.3085 15.9125 31.9632 13.4659C29.3195 8.6576 24.8441 4.85017 19.3617 2.74442C19.124 2.6532 18.8566 2.6837 18.6456 2.82592C15.0506 5.25038 12.1694 8.4794 10.3139 12.1638C8.39561 15.9724 7.63098 20.1741 8.10224 24.3151Z" fill="white" stroke="#A7CE46" stroke-width="2" stroke-linecap="round" stroke-linejoin="round"/>
<path d="M24.7145 50.3515L20.6729 22.76" stroke="#A7CE46" stroke-width="2" stroke-linecap="round" stroke-linejoin="round"/>
<path d="M14.374 25.9373L22.1277 32.6929L27.6179 23.9973" stroke="#A7CE46" stroke-width="2" stroke-linecap="round" stroke-linejoin="round"/>
</svg>
