<svg width="52" height="51" viewBox="0 0 52 51" fill="none" xmlns="http://www.w3.org/2000/svg">
<path d="M25 27.0833L14.1747 20.8332L14.1747 8.33325L25 2.08325L35.8253 8.33325L35.8253 20.8333L25 27.0833Z" stroke="#A7CE46" stroke-width="2" stroke-linecap="round" stroke-linejoin="round"/>
<path d="M25.0003 26.0415L25.0003 15.6248L35.417 8.33317" stroke="#A7CE46" stroke-width="2" stroke-linecap="round" stroke-linejoin="round"/>
<path d="M25 15.6248L14.5833 9.37476" stroke="#A7CE46" stroke-width="2" stroke-linecap="round" stroke-linejoin="round"/>
<path d="M39.583 50L28.7577 43.75L28.7577 31.25L39.583 25L50.4083 31.25L50.4083 43.75L39.583 50Z" stroke="#A7CE46" stroke-width="2" stroke-linecap="round" stroke-linejoin="round"/>
<path d="M39.5833 48.9583L39.5833 38.5416L50 31.2499" stroke="#A7CE46" stroke-width="2" stroke-linecap="round" stroke-linejoin="round"/>
<path d="M39.583 38.5417L29.1663 32.2917" stroke="#A7CE46" stroke-width="2" stroke-linecap="round" stroke-linejoin="round"/>
<path d="M12.5 50L1.67468 43.75L1.67468 31.25L12.5 25L23.3253 31.25L23.3253 43.75L12.5 50Z" stroke="#A7CE46" stroke-width="2" stroke-linecap="round" stroke-linejoin="round"/>
<path d="M12.5003 48.9583L12.5003 38.5416L22.917 31.2499" stroke="#A7CE46" stroke-width="2" stroke-linecap="round" stroke-linejoin="round"/>
<path d="M12.5 38.5417L2.08333 32.2917" stroke="#A7CE46" stroke-width="2" stroke-linecap="round" stroke-linejoin="round"/>
</svg>
