<svg width="137" height="32" viewBox="0 0 137 32" fill="none" xmlns="http://www.w3.org/2000/svg">
<path fill-rule="evenodd" clip-rule="evenodd" d="M28.351 9.49507V22.5061C28.351 27.6231 31.723 31.3051 37.94 31.3051C44.157 31.3051 47.529 27.6221 47.529 22.5051V9.49507C47.529 4.33807 44.114 0.695068 37.94 0.695068C31.766 0.695068 28.351 4.33507 28.351 9.49507ZM116.468 22.5061V9.49507C116.468 4.33507 119.884 0.695068 126.058 0.695068C132.232 0.695068 135.647 4.33807 135.647 9.49507V22.5051C135.647 27.6221 132.275 31.3051 126.058 31.3051C119.841 31.3051 116.468 27.6231 116.468 22.5061ZM122.497 10.3621V21.6391C122.497 22.8951 122.963 25.3251 126.057 25.3251C129.151 25.3251 129.617 22.8961 129.617 21.6391V10.3621C129.617 9.10507 129.15 6.67707 126.057 6.67707C122.964 6.67707 122.495 9.10507 122.495 10.3621H122.497ZM34.378 10.3621V21.6391C34.378 22.8951 34.844 25.3251 37.939 25.3251C41.034 25.3251 41.5 22.8961 41.5 21.6391V10.3621C41.5 9.10507 41.033 6.67707 37.939 6.67707C34.845 6.67707 34.378 9.10507 34.378 10.3621ZM94.014 30.7451H103.532L103.81 30.7481C109.737 30.7481 112.637 26.6461 112.637 22.3761V9.66907C112.637 5.20307 109.646 1.25707 103.532 1.25707H94.014V30.7451ZM99.955 24.8451H102.967C106.609 24.8451 106.653 21.9401 106.653 20.7241V11.3141C106.653 10.0571 106.609 7.15107 102.967 7.15107H99.955V24.8451ZM11.838 30.7451H15.413L15.689 30.7481C21.619 30.7481 24.519 26.6461 24.519 22.3761V9.66907C24.519 5.20307 21.527 1.25707 15.412 1.25707H5.89502V24.8471H11.838V30.7451ZM14.849 24.8451H11.838V7.15107H14.849C18.491 7.15107 18.535 10.0571 18.535 11.3141V20.7241C18.535 21.9401 18.491 24.8451 14.849 24.8451ZM81.595 30.7451V1.25607H88.014V30.7451H81.595ZM69.651 13.2881V30.7451H75.592V1.25607H69.181L63.561 14.2761L57.94 1.25607H51.53V30.7451H57.471V13.2881L62.83 24.8481H64.291L69.651 13.2881Z" fill="white"/>
<path d="M122.497 10.3621H122.997V9.86207H122.497V10.3621ZM122.495 10.3621H121.995V10.8621H122.495V10.3621ZM103.532 30.7451L103.537 30.2451H103.532V30.7451ZM94.014 30.7451H93.514V31.2451H94.014V30.7451ZM103.81 30.7481L103.805 31.2481H103.81V30.7481ZM94.014 1.25707V0.757068H93.514V1.25707H94.014ZM99.955 24.8451H99.455V25.3451H99.955V24.8451ZM99.955 7.15107V6.65107H99.455V7.15107H99.955ZM15.413 30.7451L15.4185 30.2451H15.413V30.7451ZM11.838 30.7451H11.338V31.2451H11.838V30.7451ZM15.689 30.7481L15.6836 31.2481H15.689V30.7481ZM5.89502 1.25707V0.757068H5.39502V1.25707H5.89502ZM5.89502 24.8471H5.39502V25.3471H5.89502V24.8471ZM11.838 24.8471H12.338V24.3471H11.838V24.8471ZM11.838 24.8451H11.338V25.3451H11.838V24.8451ZM11.838 7.15107V6.65107H11.338V7.15107H11.838ZM81.595 1.25607V0.756068H81.095V1.25607H81.595ZM81.595 30.7451H81.095V31.2451H81.595V30.7451ZM88.014 1.25607H88.514V0.756068H88.014V1.25607ZM88.014 30.7451V31.2451H88.514V30.7451H88.014ZM69.651 30.7451H69.151V31.2451H69.651V30.7451ZM69.651 13.2881H70.151L69.1974 13.0777L69.651 13.2881ZM75.592 30.7451V31.2451H76.092V30.7451H75.592ZM75.592 1.25607H76.092V0.756068H75.592V1.25607ZM69.181 1.25607V0.756068H68.8522L68.722 1.05792L69.181 1.25607ZM63.561 14.2761L63.102 14.4742L63.5611 15.5376L64.0201 14.4742L63.561 14.2761ZM57.94 1.25607L58.3991 1.05789L58.2688 0.756068H57.94V1.25607ZM51.53 1.25607V0.756068H51.03V1.25607H51.53ZM51.53 30.7451H51.03V31.2451H51.53V30.7451ZM57.471 30.7451V31.2451H57.971V30.7451H57.471ZM57.471 13.2881L57.9246 13.0778L56.971 13.2881H57.471ZM62.83 24.8481L62.3764 25.0584L62.5107 25.3481H62.83V24.8481ZM64.291 24.8481V25.3481H64.6103L64.7446 25.0584L64.291 24.8481ZM28.851 22.5061V9.49507H27.851V22.5061H28.851ZM37.94 30.8051C34.9305 30.8051 32.6681 29.9156 31.161 28.4643C29.6547 27.0138 28.851 24.9527 28.851 22.5061H27.851C27.851 25.1765 28.7333 27.5148 30.4673 29.1846C32.2004 30.8535 34.7325 31.8051 37.94 31.8051V30.8051ZM47.029 22.5051C47.029 24.9517 46.2253 27.0131 44.719 28.4638C43.2119 29.9154 40.9495 30.8051 37.94 30.8051V31.8051C41.1475 31.8051 43.6797 30.8532 45.4127 29.1841C47.1467 27.514 48.029 25.1755 48.029 22.5051H47.029ZM47.029 9.49507V22.5051H48.029V9.49507H47.029ZM37.94 1.19507C40.9287 1.19507 43.1915 2.07516 44.7041 3.52245C46.2152 4.96836 47.029 7.02942 47.029 9.49507H48.029C48.029 6.80372 47.1353 4.46478 45.3954 2.79993C43.657 1.13648 41.1254 0.195068 37.94 0.195068V1.19507ZM28.851 9.49507C28.851 7.02786 29.6649 4.96685 31.1759 3.52137C32.6884 2.07447 34.9512 1.19507 37.94 1.19507V0.195068C34.7548 0.195068 32.2231 1.13566 30.4846 2.79877C28.7447 4.46328 27.851 6.80228 27.851 9.49507H28.851ZM115.968 9.49507V22.5061H116.968V9.49507H115.968ZM126.058 0.195068C122.873 0.195068 120.341 1.13566 118.602 2.79874C116.862 4.46324 115.968 6.80223 115.968 9.49507H116.968C116.968 7.0279 117.782 4.9669 119.293 3.5214C120.806 2.07448 123.069 1.19507 126.058 1.19507V0.195068ZM136.147 9.49507C136.147 6.80372 135.253 4.46478 133.513 2.79993C131.775 1.13648 129.243 0.195068 126.058 0.195068V1.19507C129.047 1.19507 131.31 2.07516 132.822 3.52245C134.333 4.96836 135.147 7.02942 135.147 9.49507H136.147ZM136.147 22.5051V9.49507H135.147V22.5051H136.147ZM126.058 31.8051C129.266 31.8051 131.798 30.8532 133.531 29.1841C135.265 27.514 136.147 25.1755 136.147 22.5051H135.147C135.147 24.9517 134.343 27.0131 132.837 28.4638C131.33 29.9154 129.067 30.8051 126.058 30.8051V31.8051ZM115.968 22.5061C115.968 25.1765 116.851 27.5148 118.585 29.1846C120.318 30.8535 122.851 31.8051 126.058 31.8051V30.8051C123.048 30.8051 120.786 29.9156 119.278 28.4643C117.772 27.0138 116.968 24.9526 116.968 22.5061H115.968ZM122.997 21.6391V10.3621H121.997V21.6391H122.997ZM126.057 24.8251C124.665 24.8251 123.938 24.2914 123.534 23.6782C123.108 23.03 122.997 22.2214 122.997 21.6391H121.997C121.997 22.3127 122.119 23.3471 122.699 24.228C123.302 25.1438 124.355 25.8251 126.057 25.8251V24.8251ZM129.117 21.6391C129.117 22.222 129.006 23.0305 128.58 23.6785C128.176 24.2916 127.449 24.8251 126.057 24.8251V25.8251C127.759 25.8251 128.812 25.1441 129.415 24.2284C129.995 23.3476 130.117 22.3132 130.117 21.6391H129.117ZM129.117 10.3621V21.6391H130.117V10.3621H129.117ZM126.057 7.17707C127.449 7.17707 128.176 7.71036 128.579 8.32325C129.006 8.97103 129.117 9.77928 129.117 10.3621H130.117C130.117 9.68785 129.994 8.65361 129.414 7.77313C128.811 6.85777 127.758 6.17707 126.057 6.17707V7.17707ZM122.995 10.3621C122.995 9.77954 123.106 8.97128 123.534 8.32344C123.938 7.7104 124.665 7.17707 126.057 7.17707V6.17707C124.356 6.17707 123.302 6.85774 122.699 7.77294C122.118 8.65336 121.995 9.68759 121.995 10.3621H122.995ZM122.497 9.86207H122.495V10.8621H122.497V9.86207ZM34.878 21.6391V10.3621H33.878V21.6391H34.878ZM37.939 24.8251C36.5463 24.8251 35.8193 24.2913 35.4155 23.6781C34.9887 23.03 34.878 22.2214 34.878 21.6391H33.878C33.878 22.3127 34.0003 23.3472 34.5803 24.228C35.1833 25.1438 36.2367 25.8251 37.939 25.8251V24.8251ZM41 21.6391C41 22.222 40.8893 23.0305 40.4626 23.6784C40.0588 24.2915 39.3318 24.8251 37.939 24.8251V25.8251C39.6413 25.8251 40.6947 25.1441 41.2977 24.2284C41.8778 23.3477 42 22.3132 42 21.6391H41ZM41 10.3621V21.6391H42V10.3621H41ZM37.939 7.17707C39.3313 7.17707 40.0584 7.71042 40.4623 8.3233C40.8891 8.97106 41 9.77929 41 10.3621H42C42 9.68785 41.8775 8.65358 41.2973 7.77309C40.6941 6.85772 39.6407 6.17707 37.939 6.17707V7.17707ZM34.878 10.3621C34.878 9.77929 34.989 8.97106 35.4158 8.3233C35.8196 7.71042 36.5467 7.17707 37.939 7.17707V6.17707C36.2373 6.17707 35.1839 6.85772 34.5808 7.77309C34.0006 8.65358 33.878 9.68785 33.878 10.3621H34.878ZM103.532 30.2451H94.014V31.2451H103.532V30.2451ZM103.815 30.2481L103.537 30.2451L103.527 31.245L103.805 31.248L103.815 30.2481ZM112.137 22.3761C112.137 24.4007 111.45 26.3659 110.082 27.8208C108.72 29.269 106.651 30.2481 103.81 30.2481V31.2481C106.896 31.2481 109.24 30.1762 110.81 28.5058C112.374 26.8422 113.137 24.6215 113.137 22.3761H112.137ZM112.137 9.66907V22.3761H113.137V9.66907H112.137ZM103.532 1.75707C106.477 1.75707 108.617 2.70435 110.02 4.13806C111.427 5.5759 112.137 7.54668 112.137 9.66907H113.137C113.137 7.32546 112.351 5.09023 110.735 3.43857C109.114 1.78279 106.701 0.757068 103.532 0.757068V1.75707ZM94.014 1.75707H103.532V0.757068H94.014V1.75707ZM94.514 30.7451V1.25707H93.514V30.7451H94.514ZM102.967 24.3451H99.955V25.3451H102.967V24.3451ZM106.153 20.7241C106.153 21.3397 106.135 22.251 105.734 23.0061C105.54 23.3718 105.257 23.698 104.834 23.9367C104.408 24.177 103.811 24.3451 102.967 24.3451V25.3451C103.944 25.3451 104.718 25.15 105.325 24.8076C105.935 24.4637 106.345 23.9876 106.617 23.475C107.149 22.4736 107.153 21.3244 107.153 20.7241H106.153ZM106.153 11.3141V20.7241H107.153V11.3141H106.153ZM102.967 7.65107C103.811 7.65107 104.408 7.81917 104.833 8.05996C105.256 8.29912 105.539 8.62636 105.734 8.99453C106.135 9.75514 106.153 10.677 106.153 11.3141H107.153C107.153 10.6942 107.149 9.53449 106.618 8.52786C106.346 8.0124 105.935 7.53458 105.326 7.18959C104.719 6.84622 103.944 6.65107 102.967 6.65107V7.65107ZM99.955 7.65107H102.967V6.65107H99.955V7.65107ZM100.455 24.8451V7.15107H99.455V24.8451H100.455ZM15.413 30.2451H11.838V31.2451H15.413V30.2451ZM15.6945 30.2481L15.4185 30.2451L15.4076 31.245L15.6836 31.248L15.6945 30.2481ZM24.019 22.3761C24.019 24.4007 23.3316 26.3659 21.9635 27.8208C20.6018 29.2689 18.5314 30.2481 15.689 30.2481V31.2481C18.7767 31.2481 21.1213 30.1762 22.692 28.5058C24.2564 26.8422 25.019 24.6215 25.019 22.3761H24.019ZM24.019 9.66907V22.3761H25.019V9.66907H24.019ZM15.412 1.75707C18.3575 1.75707 20.4977 2.70437 21.9014 4.13811C23.3091 5.57596 24.019 7.54673 24.019 9.66907H25.019C25.019 7.32541 24.233 5.09018 22.6159 3.43853C20.9949 1.78277 18.5815 0.757068 15.412 0.757068V1.75707ZM5.89502 1.75707H15.412V0.757068H5.89502V1.75707ZM6.39502 24.8471V1.25707H5.39502V24.8471H6.39502ZM11.838 24.3471H5.89502V25.3471H11.838V24.3471ZM12.338 30.7451V24.8471H11.338V30.7451H12.338ZM11.838 25.3451H14.849V24.3451H11.838V25.3451ZM11.338 7.15107V24.8451H12.338V7.15107H11.338ZM14.849 6.65107H11.838V7.65107H14.849V6.65107ZM19.035 11.3141C19.035 10.6942 19.0311 9.53449 18.5 8.52786C18.228 8.0124 17.8174 7.53458 17.2076 7.18959C16.6007 6.84622 15.826 6.65107 14.849 6.65107V7.65107C15.6931 7.65107 16.2896 7.81917 16.7152 8.05996C17.138 8.29912 17.4213 8.62636 17.6156 8.99453C18.0169 9.75514 18.035 10.677 18.035 11.3141H19.035ZM19.035 20.7241V11.3141H18.035V20.7241H19.035ZM14.849 25.3451C15.826 25.3451 16.6005 25.15 17.2072 24.8076C17.8167 24.4637 18.2273 23.9876 18.4994 23.475C19.031 22.4736 19.035 21.3244 19.035 20.7241H18.035C18.035 21.3397 18.017 22.251 17.6161 23.0061C17.422 23.3718 17.1387 23.698 16.7157 23.9367C16.2898 24.177 15.6931 24.3451 14.849 24.3451V25.3451ZM81.095 1.25607V30.7451H82.095V1.25607H81.095ZM88.014 0.756068H81.595V1.75607H88.014V0.756068ZM88.514 30.7451V1.25607H87.514V30.7451H88.514ZM81.595 31.2451H88.014V30.2451H81.595V31.2451ZM70.151 30.7451V13.2881H69.151V30.7451H70.151ZM75.592 30.2451H69.651V31.2451H75.592V30.2451ZM75.092 1.25607V30.7451H76.092V1.25607H75.092ZM69.181 1.75607H75.592V0.756068H69.181V1.75607ZM64.0201 14.4742L69.6401 1.45422L68.722 1.05792L63.102 14.0779L64.0201 14.4742ZM57.481 1.45425L63.102 14.4742L64.0201 14.0779L58.3991 1.05789L57.481 1.45425ZM51.53 1.75607H57.94V0.756068H51.53V1.75607ZM52.03 30.7451V1.25607H51.03V30.7451H52.03ZM57.471 30.2451H51.53V31.2451H57.471V30.2451ZM56.971 13.2881V30.7451H57.971V13.2881H56.971ZM63.2836 24.6378L57.9246 13.0778L57.0174 13.4984L62.3764 25.0584L63.2836 24.6378ZM64.291 24.3481H62.83V25.3481H64.291V24.3481ZM69.1974 13.0777L63.8374 24.6377L64.7446 25.0584L70.1046 13.4984L69.1974 13.0777Z" fill="black" fill-opacity="0.01"/>
<rect y="24.8472" width="5.897" height="5.898" fill="#A7D500"/>
</svg>
