<svg width="53" height="50" viewBox="0 0 53 50" fill="none" xmlns="http://www.w3.org/2000/svg">
<rect width="50" height="50" transform="translate(3)" fill="white"/>
<rect x="10.3809" y="16.8447" width="39.5833" height="25" rx="4.16667" transform="rotate(-0.354636 10.3809 16.8447)" stroke="#A7CE46" stroke-width="2" stroke-linecap="round" stroke-linejoin="round"/>
<rect x="0.645508" y="12.9827" width="45.8333" height="29.1667" rx="4.16667" transform="rotate(-15 0.645508 12.9827)" fill="white" stroke="#A7CE46" stroke-width="2" stroke-linecap="round" stroke-linejoin="round"/>
<ellipse cx="26.5562" cy="21.1376" rx="6.25" ry="8.33333" transform="rotate(-15 26.5562 21.1376)" stroke="#A7CE46" stroke-width="2" stroke-linecap="round" stroke-linejoin="round"/>
<path d="M9.77371 14.8508C10.3693 17.0736 9.05021 19.3583 6.82744 19.9539" stroke="#A7CE46" stroke-width="2" stroke-linecap="round" stroke-linejoin="round"/>
<path d="M43.3386 27.4253C42.743 25.2026 44.0621 22.9178 46.2849 22.3222" stroke="#A7CE46" stroke-width="2" stroke-linecap="round" stroke-linejoin="round"/>
<path d="M15.1653 34.9741C14.5697 32.7513 12.285 31.4322 10.0622 32.0278" stroke="#A7CE46" stroke-width="2" stroke-linecap="round" stroke-linejoin="round"/>
<path d="M37.946 7.30156C38.5416 9.52433 40.8263 10.8434 43.0491 10.2478" stroke="#A7CE46" stroke-width="2" stroke-linecap="round" stroke-linejoin="round"/>
</svg>
