<svg width="50" height="50" viewBox="0 0 50 50" fill="none" xmlns="http://www.w3.org/2000/svg">
<rect width="50" height="50" fill="white"/>
<rect x="10.417" y="4.16675" width="6.25" height="20.8333" rx="2.08333" stroke="#A7CE46" stroke-width="2" stroke-linecap="round"/>
<path d="M6.25 23.7795C6.25 23.227 6.46949 22.6971 6.86019 22.3064L23.5269 5.63974C24.3405 4.82614 25.6595 4.82614 26.4731 5.63973L43.1398 22.3064C43.5305 22.6971 43.75 23.227 43.75 23.7795V43.7499C43.75 44.9005 42.8173 45.8333 41.6667 45.8333H8.33333C7.18274 45.8333 6.25 44.9005 6.25 43.7499V23.7795Z" fill="white"/>
<path d="M23.5269 5.63974L22.8198 4.93263L23.5269 5.63974ZM26.4731 5.63973L27.1802 4.93263L26.4731 5.63973ZM43.1398 22.3064L42.4327 23.0135L43.1398 22.3064ZM6.86019 22.3064L7.5673 23.0135L6.86019 22.3064ZM42.75 23.7795V43.7499H44.75V23.7795H42.75ZM41.6667 44.8333H8.33333V46.8333H41.6667V44.8333ZM7.25 43.7499V23.7795H5.25V43.7499H7.25ZM7.5673 23.0135L24.234 6.34684L22.8198 4.93263L6.15309 21.5993L7.5673 23.0135ZM25.766 6.34684L42.4327 23.0135L43.8469 21.5993L27.1802 4.93263L25.766 6.34684ZM24.234 6.34684C24.657 5.92377 25.343 5.92377 25.766 6.34684L27.1802 4.93263C25.9761 3.72851 24.0239 3.72851 22.8198 4.93263L24.234 6.34684ZM8.33333 44.8333C7.73502 44.8333 7.25 44.3482 7.25 43.7499H5.25C5.25 45.4528 6.63045 46.8333 8.33333 46.8333V44.8333ZM42.75 43.7499C42.75 44.3482 42.265 44.8333 41.6667 44.8333V46.8333C43.3695 46.8333 44.75 45.4528 44.75 43.7499H42.75ZM44.75 23.7795C44.75 22.9618 44.4251 22.1775 43.8469 21.5993L42.4327 23.0135C42.6359 23.2167 42.75 23.4922 42.75 23.7795H44.75ZM7.25 23.7795C7.25 23.4922 7.36414 23.2167 7.5673 23.0135L6.15309 21.5993C5.57485 22.1775 5.25 22.9618 5.25 23.7795H7.25Z" fill="#A7CE46"/>
<path fill-rule="evenodd" clip-rule="evenodd" d="M30.8375 20.284C31.0873 20.0342 31.0535 19.56 30.7128 19.4666C28.3484 18.8187 25.7125 19.4235 23.8549 21.2811C22.136 23 21.4898 25.3854 21.9163 27.6054C22.0743 28.4281 21.923 29.3139 21.3307 29.9063L15.4624 35.7746C14.3606 36.8764 14.3606 38.6627 15.4624 39.7644C16.5641 40.8662 18.3505 40.8662 19.4522 39.7644L25.3982 33.8185C25.9769 33.2398 26.8376 33.0813 27.6442 33.2196C29.8243 33.5935 32.1464 32.9388 33.8295 31.2557C35.6869 29.3984 36.2918 26.7628 35.6443 24.3986C35.551 24.058 35.077 24.0242 34.8273 24.2739L31.8349 27.2663C30.7332 28.3681 28.9468 28.3681 27.8451 27.2663C26.7433 26.1645 26.7433 24.3782 27.8451 23.2764L30.8375 20.284Z" fill="white"/>
<path d="M15.4624 35.7746L16.1695 36.4817L15.4624 35.7746ZM19.4522 39.7644L18.7451 39.0573L19.4522 39.7644ZM27.8451 23.2764L28.5522 23.9835L27.8451 23.2764ZM35.6443 24.3986L34.6798 24.6627L35.6443 24.3986ZM27.6442 33.2196L27.8132 32.234L27.6442 33.2196ZM21.9163 27.6054L22.8983 27.4168L21.9163 27.6054ZM21.3307 29.9063L20.6236 29.1992L21.3307 29.9063ZM24.562 21.9882C26.1553 20.3949 28.4164 19.8742 30.4485 20.431L30.9771 18.5021C28.2803 17.7632 25.2696 18.4521 23.1478 20.574L24.562 21.9882ZM22.8983 27.4168C22.5317 25.5085 23.0875 23.4627 24.562 21.9882L23.1478 20.574C21.1845 22.5373 20.4478 25.2623 20.9342 27.7941L22.8983 27.4168ZM16.1695 36.4817L22.0378 30.6134L20.6236 29.1992L14.7553 35.0675L16.1695 36.4817ZM16.1695 39.0573C15.4582 38.3461 15.4582 37.1929 16.1695 36.4817L14.7553 35.0675C13.263 36.5598 13.263 38.9793 14.7553 40.4716L16.1695 39.0573ZM18.7451 39.0573C18.0339 39.7686 16.8807 39.7686 16.1695 39.0573L14.7553 40.4716C16.2476 41.9638 18.667 41.9638 20.1593 40.4716L18.7451 39.0573ZM24.6911 33.1114L18.7451 39.0573L20.1593 40.4716L26.1053 34.5256L24.6911 33.1114ZM33.1224 30.5486C31.6785 31.9925 29.6872 32.5554 27.8132 32.234L27.4752 34.2053C29.9615 34.6316 32.6143 33.8851 34.5367 31.9628L33.1224 30.5486ZM34.6798 24.6627C35.2363 26.6947 34.7156 28.9555 33.1224 30.5486L34.5367 31.9628C36.6583 29.8412 37.3473 26.831 36.6087 24.1344L34.6798 24.6627ZM32.542 27.9734L35.5344 24.981L34.1202 23.5668L31.1278 26.5592L32.542 27.9734ZM27.138 27.9734C28.6303 29.4657 31.0497 29.4657 32.542 27.9734L31.1278 26.5592C30.4166 27.2704 29.2634 27.2704 28.5522 26.5592L27.138 27.9734ZM27.138 22.5693C25.6457 24.0616 25.6457 26.4811 27.138 27.9734L28.5522 26.5592C27.8409 25.8479 27.8409 24.6948 28.5522 23.9835L27.138 22.5693ZM30.1304 19.5769L27.138 22.5693L28.5522 23.9835L31.5446 20.9911L30.1304 19.5769ZM36.6087 24.1344C36.4313 23.4866 35.8834 23.1797 35.4163 23.1223C34.9705 23.0676 34.4773 23.2097 34.1202 23.5668L35.5344 24.981C35.427 25.0884 35.2957 25.1226 35.1726 25.1074C35.1028 25.0989 35.0037 25.0705 34.9036 24.9936C34.796 24.9111 34.7154 24.793 34.6798 24.6627L36.6087 24.1344ZM26.1053 34.5256C26.3864 34.2445 26.8802 34.1032 27.4752 34.2053L27.8132 32.234C26.7949 32.0594 25.5673 32.2351 24.6911 33.1114L26.1053 34.5256ZM20.9342 27.7941C21.0511 28.4025 20.9112 28.9116 20.6236 29.1992L22.0378 30.6134C22.9349 29.7163 23.0975 28.4537 22.8983 27.4168L20.9342 27.7941ZM31.5446 20.9911C31.9017 20.634 32.0438 20.1408 31.9892 19.6949C31.9319 19.2277 31.625 18.6797 30.9771 18.5021L30.4485 20.431C30.3184 20.3954 30.2003 20.3148 30.1177 20.2072C30.041 20.1072 30.0126 20.0081 30.004 19.9383C29.989 19.8154 30.0231 19.6842 30.1304 19.5769L31.5446 20.9911Z" fill="#A7CE46"/>
</svg>
