<svg width="26" height="24" viewBox="0 0 26 24" fill="none" xmlns="http://www.w3.org/2000/svg">
<path d="M12.9639 7L12.9639 16" stroke="#A7D500" stroke-width="1.5" stroke-linecap="round" stroke-linejoin="round"/>
<path d="M16.2363 13.7273L13.6707 16.2929C13.2802 16.6834 12.647 16.6834 12.2565 16.2929L9.69087 13.7273" stroke="#A7D500" stroke-width="1.5" stroke-linecap="round" stroke-linejoin="round"/>
<path d="M5.96338 20C3.20196 20 0.963379 17.7614 0.963379 15C0.963379 12.2386 3.20196 10 5.96338 10L5.97978 10C6.23706 6.091 9.48925 3 13.4634 3C16.8142 3 19.6517 5.19741 20.6137 8.22981C23.1249 8.94667 24.9634 11.2586 24.9634 14C24.9634 17.3137 22.2771 20 18.9634 20C14.2793 20 10.2928 20 5.96338 20Z" stroke="#A7D500" stroke-width="1.5" stroke-linecap="round" stroke-linejoin="round"/>
</svg>
