<svg width="137" height="33" viewBox="0 0 137 33" fill="none" xmlns="http://www.w3.org/2000/svg">
<path fill-rule="evenodd" clip-rule="evenodd" d="M28.351 9.8V22.811C28.351 27.928 31.723 31.61 37.94 31.61C44.157 31.61 47.529 27.927 47.529 22.81V9.8C47.529 4.643 44.114 1 37.94 1C31.766 1 28.351 4.64 28.351 9.8ZM116.468 22.811V9.8C116.468 4.64 119.884 1 126.058 1C132.232 1 135.647 4.643 135.647 9.8V22.81C135.647 27.927 132.275 31.61 126.058 31.61C119.841 31.61 116.468 27.928 116.468 22.811ZM122.497 10.667V21.944C122.497 23.2 122.963 25.63 126.057 25.63C129.151 25.63 129.617 23.201 129.617 21.944V10.667C129.617 9.41 129.15 6.982 126.057 6.982C122.964 6.982 122.495 9.41 122.495 10.667H122.497ZM34.378 10.667V21.944C34.378 23.2 34.844 25.63 37.939 25.63C41.034 25.63 41.5 23.201 41.5 21.944V10.667C41.5 9.41 41.033 6.982 37.939 6.982C34.845 6.982 34.378 9.41 34.378 10.667ZM94.014 31.05H103.532L103.81 31.053C109.737 31.053 112.637 26.951 112.637 22.681V9.974C112.637 5.508 109.646 1.562 103.532 1.562H94.014V31.05ZM99.955 25.15H102.967C106.609 25.15 106.653 22.245 106.653 21.029V11.619C106.653 10.362 106.609 7.456 102.967 7.456H99.955V25.15ZM11.838 31.05H15.413L15.689 31.053C21.619 31.053 24.519 26.951 24.519 22.681V9.974C24.519 5.508 21.527 1.562 15.412 1.562H5.89502V25.152H11.838V31.05ZM14.849 25.15H11.838V7.456H14.849C18.491 7.456 18.535 10.362 18.535 11.619V21.029C18.535 22.245 18.491 25.15 14.849 25.15ZM81.595 31.05V1.561H88.014V31.05H81.595ZM69.651 13.593V31.05H75.592V1.561H69.181L63.561 14.581L57.94 1.561H51.53V31.05H57.471V13.593L62.83 25.153H64.291L69.651 13.593Z" fill="white"/>
<path d="M122.497 10.667H122.997V10.167H122.497V10.667ZM122.495 10.667H121.995V11.167H122.495V10.667ZM103.532 31.05L103.537 30.55H103.532V31.05ZM94.014 31.05H93.514V31.55H94.014V31.05ZM103.81 31.053L103.805 31.553H103.81V31.053ZM94.014 1.562V1.062H93.514V1.562H94.014ZM99.955 25.15H99.455V25.65H99.955V25.15ZM99.955 7.456V6.956H99.455V7.456H99.955ZM15.413 31.05L15.4185 30.55H15.413V31.05ZM11.838 31.05H11.338V31.55H11.838V31.05ZM15.689 31.053L15.6836 31.553H15.689V31.053ZM5.89502 1.562V1.062H5.39502V1.562H5.89502ZM5.89502 25.152H5.39502V25.652H5.89502V25.152ZM11.838 25.152H12.338V24.652H11.838V25.152ZM11.838 25.15H11.338V25.65H11.838V25.15ZM11.838 7.456V6.956H11.338V7.456H11.838ZM81.595 1.561V1.061H81.095V1.561H81.595ZM81.595 31.05H81.095V31.55H81.595V31.05ZM88.014 1.561H88.514V1.061H88.014V1.561ZM88.014 31.05V31.55H88.514V31.05H88.014ZM69.651 31.05H69.151V31.55H69.651V31.05ZM69.651 13.593H70.151L69.1974 13.3827L69.651 13.593ZM75.592 31.05V31.55H76.092V31.05H75.592ZM75.592 1.561H76.092V1.061H75.592V1.561ZM69.181 1.561V1.061H68.8522L68.722 1.36285L69.181 1.561ZM63.561 14.581L63.102 14.7792L63.5611 15.8426L64.0201 14.7792L63.561 14.581ZM57.94 1.561L58.3991 1.36282L58.2688 1.061H57.94V1.561ZM51.53 1.561V1.061H51.03V1.561H51.53ZM51.53 31.05H51.03V31.55H51.53V31.05ZM57.471 31.05V31.55H57.971V31.05H57.471ZM57.471 13.593L57.9246 13.3827L56.971 13.593H57.471ZM62.83 25.153L62.3764 25.3633L62.5107 25.653H62.83V25.153ZM64.291 25.153V25.653H64.6103L64.7446 25.3633L64.291 25.153ZM28.851 22.811V9.8H27.851V22.811H28.851ZM37.94 31.11C34.9305 31.11 32.6681 30.2206 31.161 28.7692C29.6547 27.3188 28.851 25.2576 28.851 22.811H27.851C27.851 25.4814 28.7333 27.8197 30.4673 29.4895C32.2004 31.1584 34.7325 32.11 37.94 32.11V31.11ZM47.029 22.81C47.029 25.2566 46.2253 27.318 44.719 28.7687C43.2119 30.2203 40.9495 31.11 37.94 31.11V32.11C41.1475 32.11 43.6797 31.1582 45.4127 29.489C47.1467 27.819 48.029 25.4804 48.029 22.81H47.029ZM47.029 9.8V22.81H48.029V9.8H47.029ZM37.94 1.5C40.9287 1.5 43.1915 2.38009 44.7041 3.82739C46.2152 5.27329 47.029 7.33435 47.029 9.8H48.029C48.029 7.10865 47.1353 4.76971 45.3954 3.10487C43.657 1.44141 41.1254 0.5 37.94 0.5V1.5ZM28.851 9.8C28.851 7.33279 29.6649 5.27178 31.1759 3.8263C32.6884 2.37941 34.9512 1.5 37.94 1.5V0.5C34.7548 0.5 32.2231 1.44059 30.4846 3.1037C28.7447 4.76822 27.851 7.10721 27.851 9.8H28.851ZM115.968 9.8V22.811H116.968V9.8H115.968ZM126.058 0.5C122.873 0.5 120.341 1.44059 118.602 3.10367C116.862 4.76817 115.968 7.10717 115.968 9.8H116.968C116.968 7.33283 117.782 5.27183 119.293 3.82633C120.806 2.37941 123.069 1.5 126.058 1.5V0.5ZM136.147 9.8C136.147 7.10865 135.253 4.76971 133.513 3.10487C131.775 1.44141 129.243 0.5 126.058 0.5V1.5C129.047 1.5 131.31 2.38009 132.822 3.82739C134.333 5.27329 135.147 7.33435 135.147 9.8H136.147ZM136.147 22.81V9.8H135.147V22.81H136.147ZM126.058 32.11C129.266 32.11 131.798 31.1582 133.531 29.489C135.265 27.819 136.147 25.4804 136.147 22.81H135.147C135.147 25.2566 134.343 27.318 132.837 28.7687C131.33 30.2203 129.067 31.11 126.058 31.11V32.11ZM115.968 22.811C115.968 25.4814 116.851 27.8198 118.585 29.4896C120.318 31.1584 122.851 32.11 126.058 32.11V31.11C123.048 31.11 120.786 30.2206 119.278 28.7692C117.772 27.3187 116.968 25.2576 116.968 22.811H115.968ZM122.997 21.944V10.667H121.997V21.944H122.997ZM126.057 25.13C124.665 25.13 123.938 24.5963 123.534 23.9831C123.108 23.3349 122.997 22.5264 122.997 21.944H121.997C121.997 22.6176 122.119 23.6521 122.699 24.5329C123.302 25.4487 124.355 26.13 126.057 26.13V25.13ZM129.117 21.944C129.117 22.5269 129.006 23.3354 128.58 23.9834C128.176 24.5965 127.449 25.13 126.057 25.13V26.13C127.759 26.13 128.812 25.449 129.415 24.5333C129.995 23.6526 130.117 22.6181 130.117 21.944H129.117ZM129.117 10.667V21.944H130.117V10.667H129.117ZM126.057 7.482C127.449 7.482 128.176 8.0153 128.579 8.62819C129.006 9.27596 129.117 10.0842 129.117 10.667H130.117C130.117 9.99278 129.994 8.95854 129.414 8.07806C128.811 7.1627 127.758 6.482 126.057 6.482V7.482ZM122.995 10.667C122.995 10.0845 123.106 9.27621 123.534 8.62838C123.938 8.01533 124.665 7.482 126.057 7.482V6.482C124.356 6.482 123.302 7.16267 122.699 8.07787C122.118 8.95829 121.995 9.99253 121.995 10.667H122.995ZM122.497 10.167H122.495V11.167H122.497V10.167ZM34.878 21.944V10.667H33.878V21.944H34.878ZM37.939 25.13C36.5463 25.13 35.8193 24.5963 35.4155 23.983C34.9887 23.3349 34.878 22.5264 34.878 21.944H33.878C33.878 22.6176 34.0003 23.6521 34.5803 24.533C35.1833 25.4488 36.2367 26.13 37.939 26.13V25.13ZM41 21.944C41 22.5269 40.8893 23.3354 40.4626 23.9834C40.0588 24.5964 39.3318 25.13 37.939 25.13V26.13C39.6413 26.13 40.6947 25.4491 41.2977 24.5334C41.8778 23.6526 42 22.6181 42 21.944H41ZM41 10.667V21.944H42V10.667H41ZM37.939 7.482C39.3313 7.482 40.0584 8.01535 40.4623 8.62823C40.8891 9.27599 41 10.0842 41 10.667H42C42 9.99278 41.8775 8.95851 41.2973 8.07802C40.6941 7.16265 39.6407 6.482 37.939 6.482V7.482ZM34.878 10.667C34.878 10.0842 34.989 9.27599 35.4158 8.62823C35.8196 8.01535 36.5467 7.482 37.939 7.482V6.482C36.2373 6.482 35.1839 7.16265 34.5808 8.07802C34.0006 8.95851 33.878 9.99278 33.878 10.667H34.878ZM103.532 30.55H94.014V31.55H103.532V30.55ZM103.815 30.553L103.537 30.55L103.527 31.55L103.805 31.553L103.815 30.553ZM112.137 22.681C112.137 24.7056 111.45 26.6709 110.082 28.1258C108.72 29.5739 106.651 30.553 103.81 30.553V31.553C106.896 31.553 109.24 30.4811 110.81 28.8107C112.374 27.1471 113.137 24.9264 113.137 22.681H112.137ZM112.137 9.974V22.681H113.137V9.974H112.137ZM103.532 2.062C106.477 2.062 108.617 3.00928 110.02 4.443C111.427 5.88083 112.137 7.85161 112.137 9.974H113.137C113.137 7.63039 112.351 5.39517 110.735 3.7435C109.114 2.08772 106.701 1.062 103.532 1.062V2.062ZM94.014 2.062H103.532V1.062H94.014V2.062ZM94.514 31.05V1.562H93.514V31.05H94.514ZM102.967 24.65H99.955V25.65H102.967V24.65ZM106.153 21.029C106.153 21.6446 106.135 22.5559 105.734 23.311C105.54 23.6767 105.257 24.0029 104.834 24.2416C104.408 24.482 103.811 24.65 102.967 24.65V25.65C103.944 25.65 104.718 25.4549 105.325 25.1125C105.935 24.7686 106.345 24.2926 106.617 23.78C107.149 22.7786 107.153 21.6294 107.153 21.029H106.153ZM106.153 11.619V21.029H107.153V11.619H106.153ZM102.967 7.956C103.811 7.956 104.408 8.1241 104.833 8.36489C105.256 8.60405 105.539 8.93129 105.734 9.29946C106.135 10.0601 106.153 10.9819 106.153 11.619H107.153C107.153 10.9991 107.149 9.83943 106.618 8.83279C106.346 8.31733 105.935 7.83951 105.326 7.49452C104.719 7.15115 103.944 6.956 102.967 6.956V7.956ZM99.955 7.956H102.967V6.956H99.955V7.956ZM100.455 25.15V7.456H99.455V25.15H100.455ZM15.413 30.55H11.838V31.55H15.413V30.55ZM15.6945 30.553L15.4185 30.55L15.4076 31.55L15.6836 31.553L15.6945 30.553ZM24.019 22.681C24.019 24.7056 23.3316 26.6708 21.9635 28.1257C20.6018 29.5739 18.5314 30.553 15.689 30.553V31.553C18.7767 31.553 21.1213 30.4811 22.692 28.8108C24.2564 27.1472 25.019 24.9264 25.019 22.681H24.019ZM24.019 9.974V22.681H25.019V9.974H24.019ZM15.412 2.062C18.3575 2.062 20.4977 3.0093 21.9014 4.44304C23.3091 5.88089 24.019 7.85166 24.019 9.974H25.019C25.019 7.63034 24.233 5.39511 22.6159 3.74346C20.9949 2.0877 18.5815 1.062 15.412 1.062V2.062ZM5.89502 2.062H15.412V1.062H5.89502V2.062ZM6.39502 25.152V1.562H5.39502V25.152H6.39502ZM11.838 24.652H5.89502V25.652H11.838V24.652ZM12.338 31.05V25.152H11.338V31.05H12.338ZM11.838 25.65H14.849V24.65H11.838V25.65ZM11.338 7.456V25.15H12.338V7.456H11.338ZM14.849 6.956H11.838V7.956H14.849V6.956ZM19.035 11.619C19.035 10.9991 19.0311 9.83943 18.5 8.83279C18.228 8.31733 17.8174 7.83951 17.2076 7.49452C16.6007 7.15115 15.826 6.956 14.849 6.956V7.956C15.6931 7.956 16.2896 8.1241 16.7152 8.36489C17.138 8.60405 17.4213 8.93129 17.6156 9.29946C18.0169 10.0601 18.035 10.9819 18.035 11.619H19.035ZM19.035 21.029V11.619H18.035V21.029H19.035ZM14.849 25.65C15.826 25.65 16.6005 25.4549 17.2072 25.1125C17.8167 24.7686 18.2273 24.2926 18.4994 23.78C19.031 22.7786 19.035 21.6294 19.035 21.029H18.035C18.035 21.6446 18.017 22.5559 17.6161 23.311C17.422 23.6767 17.1387 24.0029 16.7157 24.2416C16.2898 24.482 15.6931 24.65 14.849 24.65V25.65ZM81.095 1.561V31.05H82.095V1.561H81.095ZM88.014 1.061H81.595V2.061H88.014V1.061ZM88.514 31.05V1.561H87.514V31.05H88.514ZM81.595 31.55H88.014V30.55H81.595V31.55ZM70.151 31.05V13.593H69.151V31.05H70.151ZM75.592 30.55H69.651V31.55H75.592V30.55ZM75.092 1.561V31.05H76.092V1.561H75.092ZM69.181 2.061H75.592V1.061H69.181V2.061ZM64.0201 14.7792L69.6401 1.75915L68.722 1.36285L63.102 14.3828L64.0201 14.7792ZM57.481 1.75918L63.102 14.7792L64.0201 14.3828L58.3991 1.36282L57.481 1.75918ZM51.53 2.061H57.94V1.061H51.53V2.061ZM52.03 31.05V1.561H51.03V31.05H52.03ZM57.471 30.55H51.53V31.55H57.471V30.55ZM56.971 13.593V31.05H57.971V13.593H56.971ZM63.2836 24.9427L57.9246 13.3827L57.0174 13.8033L62.3764 25.3633L63.2836 24.9427ZM64.291 24.653H62.83V25.653H64.291V24.653ZM69.1974 13.3827L63.8374 24.9427L64.7446 25.3633L70.1046 13.8033L69.1974 13.3827Z" fill="black" fill-opacity="0.01"/>
<rect y="25.1519" width="5.897" height="5.898" fill="#A7D500"/>
</svg>
